HIERARCHY
ROOT Hips
{
    OFFSET 0.000000 0.000000 0.000000
    CHANNELS 6 Xposition Yposition Zposition Zrotation Xrotation Yrotation
        JOINT Chest
        {
            OFFSET -0.000000 31.571314 -0.000000
            CHANNELS 3 Zrotation Xrotation Yrotation
            JOINT Neck
            {
                OFFSET -0.000000 23.394884 0.000000
                CHANNELS 3 Zrotation Xrotation Yrotation
                JOINT Head
                {
                    OFFSET -0.000000 10.877778 0.000000
                    CHANNELS 3 Zrotation Xrotation Yrotation
                    End Site
                    {
                        OFFSET -0.000000 16.811111 0.000000
                    }
                }
            }
            JOINT LeftCollar
            {
                OFFSET -0.000000 23.394884 0.000000
                CHANNELS 3 Zrotation Xrotation Yrotation
                JOINT LeftShoulder
                {
                    OFFSET 21.500002 -0.000000 0.000000
                    CHANNELS 3 Zrotation Xrotation Yrotation
                    JOINT LeftElbow
                    {
                        OFFSET 24.792776 0.000000 0.000000
                        CHANNELS 3 Zrotation Xrotation Yrotation
                        JOINT LeftWrist
                        {
                            OFFSET 26.439411 0.000000 0.000000
                            CHANNELS 3 Zrotation Xrotation Yrotation
                            End Site
                            {
                                OFFSET 0.000000 -14.833334 0.000000
                            }
                        }
                    }
                }
            }
            JOINT RightCollar
            {
                OFFSET -0.000000 23.394884 0.000000
                CHANNELS 3 Zrotation Xrotation Yrotation
                JOINT RightShoulder
                {
                    OFFSET -21.500002 0.000000 0.000000
                    CHANNELS 3 Zrotation Xrotation Yrotation
                    JOINT RightElbow
                    {
                        OFFSET -24.792776 0.000000 0.000000
                        CHANNELS 3 Zrotation Xrotation Yrotation
                        JOINT RightWrist
                        {
                            OFFSET -26.439411 0.000000 0.000000
                            CHANNELS 3 Zrotation Xrotation Yrotation
                            End Site
                            {
                                OFFSET -0.000000 -14.833334 0.000000
                            }
                        }
                    }
                }
            }
        }
    JOINT LeftHip
    {
        OFFSET 11.866667 0.000000 0.000000
        CHANNELS 3 Zrotation Xrotation Yrotation
        JOINT LeftKnee
        {
            OFFSET -0.000000 -38.580112 0.000000
            CHANNELS 3 Zrotation Xrotation Yrotation
            JOINT LeftAnkle
            {
                OFFSET -0.000000 -41.767254 0.000000
                CHANNELS 3 Zrotation Xrotation Yrotation
                End Site
                {
                    OFFSET -0.000000 -4.944444 16.811111
                }
            }
        }
    }
    JOINT RightHip
    {
        OFFSET -11.866667 0.000000 0.000000
        CHANNELS 3 Zrotation Xrotation Yrotation
        JOINT RightKnee
        {
            OFFSET -0.000000 -38.580112 0.000000
            CHANNELS 3 Zrotation Xrotation Yrotation
            JOINT RightAnkle
            {
                OFFSET -0.000000 -41.767254 0.000000
                CHANNELS 3 Zrotation Xrotation Yrotation
                End Site
                {
                    OFFSET -0.000000 -4.944444 16.811111
                }
            }
        }
    }
}
MOTION
Frames:    5
Frame Time:    0.010000
61.023403    89.815979    -11.257323    -5.425166    -1.368535    -46.984344    6.602921    9.928619    -5.838656    1.828468    -2.040105    1.596901    1.327741    -6.270162    1.565345    -13.912416    -0.453920    3.999610    -33.910366    51.557152    -46.997387    17.790476    -11.899040    -67.402382    152.393829    -3.543826    3.318128    16.953541    0.340529    2.472198    -53.826954    61.123039    120.068642    -33.948135    -8.671945    27.814440    -141.884506    36.275154    -41.909573    10.048684    10.143029    11.681970    -2.256087    11.685902    -0.731787    -8.293086    -9.588530    16.818333    -2.013563    -4.963475    7.369259    0.887109    19.580843    9.074691    -1.598480    -7.226732    -23.014887    
61.014759    89.811676    -11.244330    -5.424543    -1.349566    -47.000587    7.000662    10.126238    -5.802781    -1.170313    -1.623304    2.121765    3.237151    -7.765602    2.356915    -14.548847    -0.625855    5.787502    -33.791870    51.276749    -47.711388    17.915342    -12.046719    -67.356812    152.113708    -3.737295    3.452531    16.138485    0.435830    4.014630    -53.326824    61.621651    119.541046    -33.556320    -8.603383    28.375360    -142.375626    35.894863    -41.177425    10.063036    10.120355    11.741349    -2.246647    11.740581    -0.811434    -8.262403    -9.630739    16.848379    -2.000084    -4.976563    7.339344    0.875749    19.600412    9.087359    -1.584825    -7.278539    -22.899328    
61.002670    89.792366    -11.226037    -5.396873    -1.342295    -47.022232    6.998915    10.089294    -5.776956    -1.231246    -1.998643    2.171933    3.336233    -7.149235    2.401502    -14.555872    -0.689442    5.762199    -33.860321    51.295357    -47.616673    17.825813    -11.939470    -67.381645    152.343765    -3.601526    3.411910    16.118746    0.500220    3.990736    -53.716000    61.388802    119.880020    -33.712292    -8.686299    28.157858    -142.157700    35.994003    -41.474239    10.030350    10.104687    11.725474    -2.248852    11.743634    -0.747110    -8.308776    -9.643866    16.840946    -2.022704    -5.016154    7.378137    0.894837    19.628702    9.065547    -1.604184    -7.269119    -22.978374    
61.002159    89.793327    -11.214674    -5.382105    -1.335737    -47.036232    7.008218    10.061059    -5.754108    -1.209897    -1.831491    2.145532    3.276534    -7.423191    2.376093    -14.570570    -0.725359    5.738094    -33.888912    51.302937    -47.565369    17.755560    -11.877331    -67.389290    152.387863    -3.630299    3.414577    16.112686    0.544140    3.979741    -53.506737    61.444973    119.681694    -33.717594    -8.720840    28.183765    -142.208252    35.926296    -41.380199    10.017083    10.089343    11.735876    -2.246914    11.763352    -0.746204    -8.320799    -9.664055    16.853046    -2.035548    -5.040285    7.385769    0.903528    19.650969    9.056013    -1.603317    -7.284081    -22.964613    
61.002922    89.795692    -11.201768    -5.366901    -1.328432    -47.051094    7.020352    10.028202    -5.725125    -1.187791    -1.682217    2.119287    3.220114    -7.666128    2.351930    -14.590648    -0.747253    5.710058    -33.900303    51.303715    -47.535599    17.690178    -11.826587    -67.390144    152.437012    -3.671211    3.414174    16.108427    0.563674    3.964193    -53.317482    61.530617    119.511108    -33.741497    -8.733508    28.208612    -142.208786    35.835468    -41.320827    10.003284    10.072748    11.743557    -2.245361    11.786123    -0.743331    -8.335691    -9.687581    16.864420    -2.050512    -5.068472    7.394960    0.915755    19.679350    9.043007    -1.600677    -7.301719    -22.947178    
